<svg xmlns="http://www.w3.org/2000/svg" viewBox="0 0 240 240" role="img" aria-label="GovOn">
  <title>GovOn</title>
  <!-- Outer dark border -->
  <rect x="0" y="0" width="240" height="240" rx="34" ry="34" fill="#0d1f17"/>
  <!-- Inner forest-green tile -->
  <rect x="6" y="6" width="228" height="228" rx="29" ry="29" fill="#1a3a2e"/>
  <!-- Subtle inner highlight (top-left) for depth -->
  <rect x="6" y="6" width="228" height="228" rx="29" ry="29" fill="url(#sheen)" opacity="0.06"/>
  <defs>
    <linearGradient id="sheen" x1="0" y1="0" x2="1" y2="1">
      <stop offset="0%" stop-color="#ffffff" stop-opacity="0.65"/>
      <stop offset="55%" stop-color="#ffffff" stop-opacity="0"/>
    </linearGradient>
  </defs>
  <!-- Stylised cream G -->
  <path fill="#F5EFE0" fill-rule="evenodd" d="
    M 122 38
    C 158 38 187 60 195 92
    C 196 96 193 100 189 100
    L 162 100
    C 159 100 156 98 155 95
    C 150 81 138 72 122 72
    C 100 72 84 90 84 119
    C 84 148 100 167 122 167
    C 137 167 149 158 154 144
    C 155 141 153 138 150 138
    L 124 138
    C 119 138 115 134 115 129
    L 115 115
    C 115 110 119 106 124 106
    L 196 106
    C 200 106 204 110 204 115
    L 204 158
    C 204 161 203 163 201 165
    C 184 188 156 202 122 202
    C 73 202 36 167 36 119
    C 36 71 73 38 122 38
    Z
  "/>
</svg>
