<?xml version="1.0" encoding="UTF-8" standalone="no"?>
<!DOCTYPE svg PUBLIC "-//W3C//DTD SVG 1.1//EN"
 "http://www.w3.org/Graphics/SVG/1.1/DTD/svg11.dtd">
<!-- Generated by graphviz version 14.1.5 (20260411.2331)
 -->
<!-- Pages: 1 -->
<svg width="1076pt" height="520pt"
 viewBox="0.00 0.00 1076.00 520.00" xmlns="http://www.w3.org/2000/svg" xmlns:xlink="http://www.w3.org/1999/xlink">
<g id="graph0" class="graph" transform="scale(1 1) rotate(0) translate(4 516.2)">
<polygon fill="white" stroke="none" points="-4,4 -4,-516.2 1072.3,-516.2 1072.3,4 -4,4"/>
<text xml:space="preserve" text-anchor="start" x="290.02" y="-30.7" font-family="Arial" font-size="34.00">System Context View: UMMAYA</text>
<text xml:space="preserve" text-anchor="start" x="419.77" y="-6.2" font-family="Arial" font-size="24.00">Where UMMAYA sits.</text>
<!-- 1 -->
<g id="1" class="node">
<title>1</title>
<polygon fill="#f8fafc" stroke="#475569" points="161.85,-344.2 0,-344.2 0,-248 161.85,-248 161.85,-344.2"/>
<text xml:space="preserve" text-anchor="start" x="28.8" y="-291.3" font-family="Arial" font-size="34.00" fill="#111827">Citizen</text>
<text xml:space="preserve" text-anchor="start" x="45.67" y="-271.55" font-family="Arial" font-size="19.00" fill="#111827">[Person]</text>
</g>
<!-- 3 -->
<g id="3" class="node">
<title>3</title>
<polygon fill="#e0f2fe" stroke="#0369a1" points="482.7,-344.2 271.35,-344.2 271.35,-248 482.7,-248 482.7,-344.2"/>
<text xml:space="preserve" text-anchor="start" x="304.65" y="-291.3" font-family="Arial" font-size="34.00" fill="#0f172a">UMMAYA</text>
<text xml:space="preserve" text-anchor="start" x="300.15" y="-271.55" font-family="Arial" font-size="19.00" fill="#0f172a">[Software System]</text>
</g>
<!-- 1&#45;&gt;3 -->
<g id="24" class="edge">
<title>1&#45;&gt;3</title>
<path fill="none" stroke="#475569" stroke-dasharray="5,2" d="M162.29,-296.1C192.26,-296.1 226.92,-296.1 259.49,-296.1"/>
<polygon fill="#475569" stroke="#475569" points="259.4,-299.6 269.4,-296.1 259.4,-292.6 259.4,-299.6"/>
<text xml:space="preserve" text-anchor="start" x="197.85" y="-301.35" font-family="Arial" font-size="24.00" fill="#475569">ask</text>
</g>
<!-- 19 -->
<g id="19" class="node">
<title>19</title>
<polygon fill="#e0f2fe" stroke="#0369a1" points="1027.42,-512.2 795.08,-512.2 795.08,-416 1027.42,-416 1027.42,-512.2"/>
<text xml:space="preserve" text-anchor="start" x="823.88" y="-459.3" font-family="Arial" font-size="34.00" fill="#0f172a">K&#45;EXAONE</text>
<text xml:space="preserve" text-anchor="start" x="834.38" y="-439.55" font-family="Arial" font-size="19.00" fill="#0f172a">[Software System]</text>
</g>
<!-- 20 -->
<g id="20" class="node">
<title>20</title>
<polygon fill="#e0f2fe" stroke="#0369a1" points="1025.92,-344.2 796.58,-344.2 796.58,-248 1025.92,-248 1025.92,-344.2"/>
<text xml:space="preserve" text-anchor="start" x="825.38" y="-291.3" font-family="Arial" font-size="34.00" fill="#0f172a">Public APIs</text>
<text xml:space="preserve" text-anchor="start" x="834.38" y="-271.55" font-family="Arial" font-size="19.00" fill="#0f172a">[Software System]</text>
</g>
<!-- 21 -->
<g id="21" class="node">
<title>21</title>
<polygon fill="#e0f2fe" stroke="#0369a1" points="1068.3,-176.2 754.2,-176.2 754.2,-80 1068.3,-80 1068.3,-176.2"/>
<text xml:space="preserve" text-anchor="start" x="783" y="-123.3" font-family="Arial" font-size="34.00" fill="#0f172a">Official Channels</text>
<text xml:space="preserve" text-anchor="start" x="834.38" y="-103.55" font-family="Arial" font-size="19.00" fill="#0f172a">[Software System]</text>
</g>
<!-- 3&#45;&gt;19 -->
<g id="28" class="edge">
<title>3&#45;&gt;19</title>
<path fill="none" stroke="#475569" stroke-dasharray="5,2" d="M482.86,-329.7C494.94,-333.56 507.09,-337.42 518.7,-341.1 607.41,-369.22 707.52,-400.66 784.31,-424.72"/>
<polygon fill="#475569" stroke="#475569" points="782.95,-427.96 793.54,-427.61 785.04,-421.28 782.95,-427.96"/>
<text xml:space="preserve" text-anchor="start" x="581.32" y="-407.08" font-family="Arial" font-size="24.00" fill="#475569">reason</text>
</g>
<!-- 3&#45;&gt;20 -->
<g id="29" class="edge">
<title>3&#45;&gt;20</title>
<path fill="none" stroke="#475569" stroke-dasharray="5,2" d="M483.18,-296.1C569.84,-296.1 692.98,-296.1 784.79,-296.1"/>
<polygon fill="#475569" stroke="#475569" points="784.59,-299.6 794.59,-296.1 784.59,-292.6 784.59,-299.6"/>
<text xml:space="preserve" text-anchor="start" x="596.32" y="-301.35" font-family="Arial" font-size="24.00" fill="#475569">Live</text>
</g>
<!-- 3&#45;&gt;21 -->
<g id="30" class="edge">
<title>3&#45;&gt;21</title>
<path fill="none" stroke="#475569" stroke-dasharray="5,2" d="M482.86,-262.5C494.94,-258.64 507.09,-254.78 518.7,-251.1 592.67,-227.65 674.57,-201.89 744.26,-180.03"/>
<polygon fill="#475569" stroke="#475569" points="744.96,-183.48 753.45,-177.15 742.86,-176.8 744.96,-183.48"/>
<text xml:space="preserve" text-anchor="start" x="518.7" y="-256.35" font-family="Arial" font-size="24.00" fill="#475569">Live/Mock/Handoff</text>
</g>
</g>
</svg>
