<?xml version="1.0" encoding="UTF-8" standalone="no"?>
<!DOCTYPE svg PUBLIC "-//W3C//DTD SVG 1.1//EN"
 "http://www.w3.org/Graphics/SVG/1.1/DTD/svg11.dtd">
<!-- Generated by graphviz version 14.1.5 (20260411.2331)
 -->
<!-- Pages: 1 -->
<svg width="2206pt" height="453pt"
 viewBox="0.00 0.00 2206.00 453.00" xmlns="http://www.w3.org/2000/svg" xmlns:xlink="http://www.w3.org/1999/xlink">
<g id="graph0" class="graph" transform="scale(1 1) rotate(0) translate(4 449)">
<polygon fill="white" stroke="none" points="-4,4 -4,-449 2201.7,-449 2201.7,4 -4,4"/>
<text xml:space="preserve" text-anchor="start" x="769.6" y="-30.7" font-family="Arial" font-size="34.00">Component View: UMMAYA &#45; Query Engine</text>
<text xml:space="preserve" text-anchor="start" x="969.47" y="-6.2" font-family="Arial" font-size="24.00">Inside the query engine.</text>
<g id="clust1" class="cluster">
<title>cluster_3</title>
<polygon fill="none" stroke="#444444" points="8,-88 8,-437 2189.7,-437 2189.7,-88 8,-88"/>
<text xml:space="preserve" text-anchor="start" x="1047.85" y="-113.2" font-family="Arial" font-size="24.00" fill="#444444">UMMAYA</text>
<text xml:space="preserve" text-anchor="start" x="1021.97" y="-93.95" font-family="Arial" font-size="19.00" fill="#444444">[Software System]</text>
</g>
<g id="clust2" class="cluster">
<title>cluster_5</title>
<polygon fill="none" stroke="#444444" points="33,-188 33,-412 2164.7,-412 2164.7,-188 33,-188"/>
<text xml:space="preserve" text-anchor="start" x="1024.97" y="-213.2" font-family="Arial" font-size="24.00" fill="#444444">Query Engine</text>
<text xml:space="preserve" text-anchor="start" x="1052.72" y="-193.95" font-family="Arial" font-size="19.00" fill="#444444">[Container]</text>
</g>
<!-- 10 -->
<g id="10" class="node">
<title>10</title>
<polygon fill="#fefce8" stroke="#a16207" points="1533.25,-387.1 1367.65,-387.1 1367.65,-290.9 1533.25,-290.9 1533.25,-387.1"/>
<text xml:space="preserve" text-anchor="start" x="1413.7" y="-334.2" font-family="Arial" font-size="34.00" fill="#422006">Gate</text>
<text xml:space="preserve" text-anchor="start" x="1396.45" y="-314.45" font-family="Arial" font-size="19.00" fill="#422006">[Component]</text>
</g>
<!-- 11 -->
<g id="11" class="node">
<title>11</title>
<polygon fill="#fefce8" stroke="#a16207" points="1830.85,-387.1 1640.5,-387.1 1640.5,-290.9 1830.85,-290.9 1830.85,-387.1"/>
<text xml:space="preserve" text-anchor="start" x="1669.3" y="-334.2" font-family="Arial" font-size="34.00" fill="#422006">Dispatch</text>
<text xml:space="preserve" text-anchor="start" x="1681.67" y="-314.45" font-family="Arial" font-size="19.00" fill="#422006">[Component]</text>
</g>
<!-- 10&#45;&gt;11 -->
<g id="47" class="edge">
<title>10&#45;&gt;11</title>
<path fill="none" stroke="#475569" stroke-dasharray="5,2" d="M1533.37,-339C1563.13,-339 1597.19,-339 1628.72,-339"/>
<polygon fill="#475569" stroke="#475569" points="1628.7,-342.5 1638.7,-339 1628.7,-335.5 1628.7,-342.5"/>
<text xml:space="preserve" text-anchor="start" x="1569.25" y="-344.25" font-family="Arial" font-size="24.00" fill="#475569">run</text>
</g>
<!-- 12 -->
<g id="12" class="node">
<title>12</title>
<polygon fill="#fefce8" stroke="#a16207" points="2139.7,-387.1 1974.1,-387.1 1974.1,-290.9 2139.7,-290.9 2139.7,-387.1"/>
<text xml:space="preserve" text-anchor="start" x="2022.02" y="-334.2" font-family="Arial" font-size="34.00" fill="#422006">Stop</text>
<text xml:space="preserve" text-anchor="start" x="2002.9" y="-314.45" font-family="Arial" font-size="19.00" fill="#422006">[Component]</text>
</g>
<!-- 11&#45;&gt;12 -->
<g id="48" class="edge">
<title>11&#45;&gt;12</title>
<path fill="none" stroke="#475569" stroke-dasharray="5,2" d="M1831.16,-339C1872.58,-339 1921.07,-339 1962.38,-339"/>
<polygon fill="#475569" stroke="#475569" points="1962.32,-342.5 1972.32,-339 1962.32,-335.5 1962.32,-342.5"/>
<text xml:space="preserve" text-anchor="start" x="1866.85" y="-344.25" font-family="Arial" font-size="24.00" fill="#475569">decide</text>
</g>
<!-- 6 -->
<g id="6" class="node">
<title>6</title>
<polygon fill="#fefce8" stroke="#a16207" points="233.35,-387.1 58,-387.1 58,-290.9 233.35,-290.9 233.35,-387.1"/>
<text xml:space="preserve" text-anchor="start" x="86.8" y="-334.2" font-family="Arial" font-size="34.00" fill="#422006">Context</text>
<text xml:space="preserve" text-anchor="start" x="91.68" y="-314.45" font-family="Arial" font-size="19.00" fill="#422006">[Component]</text>
</g>
<!-- 7 -->
<g id="7" class="node">
<title>7</title>
<polygon fill="#fefce8" stroke="#a16207" points="563.95,-387.1 379.6,-387.1 379.6,-290.9 563.95,-290.9 563.95,-387.1"/>
<text xml:space="preserve" text-anchor="start" x="408.4" y="-334.2" font-family="Arial" font-size="34.00" fill="#422006">Retrieve</text>
<text xml:space="preserve" text-anchor="start" x="417.78" y="-314.45" font-family="Arial" font-size="19.00" fill="#422006">[Component]</text>
</g>
<!-- 6&#45;&gt;7 -->
<g id="43" class="edge">
<title>6&#45;&gt;7</title>
<path fill="none" stroke="#475569" stroke-dasharray="5,2" d="M233.53,-339C274.84,-339 324.52,-339 367.73,-339"/>
<polygon fill="#475569" stroke="#475569" points="367.63,-342.5 377.63,-339 367.63,-335.5 367.63,-342.5"/>
<text xml:space="preserve" text-anchor="start" x="269.35" y="-344.25" font-family="Arial" font-size="24.00" fill="#475569">narrow</text>
</g>
<!-- 8 -->
<g id="8" class="node">
<title>8</title>
<polygon fill="#fefce8" stroke="#a16207" points="920.8,-387.1 715.45,-387.1 715.45,-290.9 920.8,-290.9 920.8,-387.1"/>
<text xml:space="preserve" text-anchor="start" x="744.25" y="-334.2" font-family="Arial" font-size="34.00" fill="#422006">Primitives</text>
<text xml:space="preserve" text-anchor="start" x="764.12" y="-314.45" font-family="Arial" font-size="19.00" fill="#422006">[Component]</text>
</g>
<!-- 7&#45;&gt;8 -->
<g id="44" class="edge">
<title>7&#45;&gt;8</title>
<path fill="none" stroke="#475569" stroke-dasharray="5,2" d="M564.15,-339C606.95,-339 658.36,-339 703.63,-339"/>
<polygon fill="#475569" stroke="#475569" points="703.48,-342.5 713.48,-339 703.48,-335.5 703.48,-342.5"/>
<text xml:space="preserve" text-anchor="start" x="599.95" y="-344.25" font-family="Arial" font-size="24.00" fill="#475569">surface</text>
</g>
<!-- 9 -->
<g id="9" class="node">
<title>9</title>
<polygon fill="#fefce8" stroke="#a16207" points="1236.4,-387.1 1058.8,-387.1 1058.8,-290.9 1236.4,-290.9 1236.4,-387.1"/>
<text xml:space="preserve" text-anchor="start" x="1087.6" y="-334.2" font-family="Arial" font-size="34.00" fill="#422006">Validate</text>
<text xml:space="preserve" text-anchor="start" x="1093.6" y="-314.45" font-family="Arial" font-size="19.00" fill="#422006">[Component]</text>
</g>
<!-- 8&#45;&gt;9 -->
<g id="45" class="edge">
<title>8&#45;&gt;9</title>
<path fill="none" stroke="#475569" stroke-dasharray="5,2" d="M920.95,-339C961.1,-339 1007.09,-339 1047.03,-339"/>
<polygon fill="#475569" stroke="#475569" points="1046.88,-342.5 1056.88,-339 1046.88,-335.5 1046.88,-342.5"/>
<text xml:space="preserve" text-anchor="start" x="956.8" y="-344.25" font-family="Arial" font-size="24.00" fill="#475569">shape</text>
</g>
<!-- 9&#45;&gt;10 -->
<g id="46" class="edge">
<title>9&#45;&gt;10</title>
<path fill="none" stroke="#475569" stroke-dasharray="5,2" d="M1236.83,-339C1274.39,-339 1318.23,-339 1356.3,-339"/>
<polygon fill="#475569" stroke="#475569" points="1355.89,-342.5 1365.89,-339 1355.89,-335.5 1355.89,-342.5"/>
<text xml:space="preserve" text-anchor="start" x="1272.4" y="-344.25" font-family="Arial" font-size="24.00" fill="#475569">safe?</text>
</g>
</g>
</svg>
