<?xml version="1.0" encoding="UTF-8" standalone="no"?>
<!DOCTYPE svg PUBLIC "-//W3C//DTD SVG 1.1//EN"
 "http://www.w3.org/Graphics/SVG/1.1/DTD/svg11.dtd">
<!-- Generated by graphviz version 14.1.5 (20260411.2331)
 -->
<!-- Pages: 1 -->
<svg width="1209pt" height="942pt"
 viewBox="0.00 0.00 1209.00 942.00" xmlns="http://www.w3.org/2000/svg" xmlns:xlink="http://www.w3.org/1999/xlink">
<g id="graph0" class="graph" transform="scale(1 1) rotate(0) translate(4 938.1)">
<polygon fill="white" stroke="none" points="-4,4 -4,-938.1 1205.05,-938.1 1205.05,4 -4,4"/>
<text xml:space="preserve" text-anchor="start" x="410.77" y="-30.7" font-family="Arial" font-size="34.00">Dynamic View: UMMAYA</text>
<text xml:space="preserve" text-anchor="start" x="514.27" y="-6.2" font-family="Arial" font-size="24.00">One query loop.</text>
<g id="clust1" class="cluster">
<title>cluster_3</title>
<polygon fill="none" stroke="#444444" points="8,-201.1 8,-926.1 828.7,-926.1 828.7,-201.1 8,-201.1"/>
<text xml:space="preserve" text-anchor="start" x="367.35" y="-226.3" font-family="Arial" font-size="24.00" fill="#444444">UMMAYA</text>
<text xml:space="preserve" text-anchor="start" x="341.47" y="-207.05" font-family="Arial" font-size="19.00" fill="#444444">[Software System]</text>
</g>
<!-- 13 -->
<g id="13" class="node">
<title>13</title>
<polygon fill="#ecfdf5" stroke="#047857" points="736.95,-565.2 541.35,-565.2 541.35,-469 736.95,-469 736.95,-565.2"/>
<text xml:space="preserve" text-anchor="start" x="570.15" y="-512.3" font-family="Arial" font-size="34.00" fill="#052e16">Sessions</text>
<text xml:space="preserve" text-anchor="start" x="593.02" y="-492.55" font-family="Arial" font-size="19.00" fill="#052e16">[Container]</text>
</g>
<!-- 14 -->
<g id="14" class="node">
<title>14</title>
<polygon fill="#ecfdf5" stroke="#047857" points="730.57,-733.2 547.72,-733.2 547.72,-637 730.57,-637 730.57,-733.2"/>
<text xml:space="preserve" text-anchor="start" x="576.52" y="-680.3" font-family="Arial" font-size="34.00" fill="#052e16">Registry</text>
<text xml:space="preserve" text-anchor="start" x="593.02" y="-660.55" font-family="Arial" font-size="19.00" fill="#052e16">[Container]</text>
</g>
<!-- 17 -->
<g id="17" class="node">
<title>17</title>
<polygon fill="#ecfdf5" stroke="#047857" points="803.7,-901.2 474.6,-901.2 474.6,-805 803.7,-805 803.7,-901.2"/>
<text xml:space="preserve" text-anchor="start" x="503.4" y="-848.3" font-family="Arial" font-size="34.00" fill="#052e16">K&#45;EXAONE Client</text>
<text xml:space="preserve" text-anchor="start" x="593.02" y="-828.55" font-family="Arial" font-size="19.00" fill="#052e16">[Container]</text>
</g>
<!-- 19 -->
<g id="19" class="node">
<title>19</title>
<polygon fill="#e0f2fe" stroke="#0369a1" points="1201.05,-901.2 968.7,-901.2 968.7,-805 1201.05,-805 1201.05,-901.2"/>
<text xml:space="preserve" text-anchor="start" x="997.5" y="-848.3" font-family="Arial" font-size="34.00" fill="#0f172a">K&#45;EXAONE</text>
<text xml:space="preserve" text-anchor="start" x="1008" y="-828.55" font-family="Arial" font-size="19.00" fill="#0f172a">[Software System]</text>
</g>
<!-- 17&#45;&gt;19 -->
<g id="35" class="edge">
<title>17&#45;&gt;19</title>
<path fill="none" stroke="#475569" stroke-dasharray="5,2" d="M804.12,-853.1C854.63,-853.1 909.44,-853.1 957.06,-853.1"/>
<polygon fill="#475569" stroke="#475569" points="956.85,-856.6 966.85,-853.1 956.85,-849.6 956.85,-856.6"/>
<text xml:space="preserve" text-anchor="start" x="839.7" y="-858.35" font-family="Arial" font-size="24.00" fill="#475569">6. model</text>
</g>
<!-- 4 -->
<g id="4" class="node">
<title>4</title>
<polygon fill="#ecfdf5" stroke="#047857" points="714.07,-397.2 564.22,-397.2 564.22,-301 714.07,-301 714.07,-397.2"/>
<text xml:space="preserve" text-anchor="start" x="621.9" y="-344.3" font-family="Arial" font-size="34.00" fill="#052e16">UI</text>
<text xml:space="preserve" text-anchor="start" x="593.02" y="-324.55" font-family="Arial" font-size="19.00" fill="#052e16">[Container]</text>
</g>
<!-- 5 -->
<g id="5" class="node">
<title>5</title>
<polygon fill="#ecfdf5" stroke="#047857" points="297.6,-629.2 33,-629.2 33,-533 297.6,-533 297.6,-629.2"/>
<text xml:space="preserve" text-anchor="start" x="61.8" y="-576.3" font-family="Arial" font-size="34.00" fill="#052e16">Query Engine</text>
<text xml:space="preserve" text-anchor="start" x="119.17" y="-556.55" font-family="Arial" font-size="19.00" fill="#052e16">[Container]</text>
</g>
<!-- 4&#45;&gt;5 -->
<g id="31" class="edge">
<title>4&#45;&gt;5</title>
<path fill="none" stroke="#475569" stroke-dasharray="5,2" d="M563.99,-385.56C486.35,-423.74 363.61,-484.09 275.01,-527.65"/>
<polygon fill="#475569" stroke="#475569" points="273.72,-524.39 266.29,-531.94 276.8,-530.67 273.72,-524.39"/>
<text xml:space="preserve" text-anchor="start" x="344.85" y="-497.95" font-family="Arial" font-size="24.00" fill="#475569">2. route</text>
</g>
<!-- 5&#45;&gt;13 -->
<g id="32" class="edge">
<title>5&#45;&gt;13</title>
<path fill="none" stroke="#475569" stroke-dasharray="5,2" d="M298.05,-563.23C371.14,-553.32 460.93,-541.14 529.89,-531.78"/>
<polygon fill="#475569" stroke="#475569" points="530.27,-535.26 539.71,-530.45 529.33,-528.33 530.27,-535.26"/>
<text xml:space="preserve" text-anchor="start" x="333.6" y="-561.96" font-family="Arial" font-size="24.00" fill="#475569">3. context</text>
</g>
<!-- 5&#45;&gt;14 -->
<g id="33" class="edge">
<title>5&#45;&gt;14</title>
<path fill="none" stroke="#475569" stroke-dasharray="5,2" d="M298.05,-610.14C373.5,-626.77 466.72,-647.32 536.48,-662.69"/>
<polygon fill="#475569" stroke="#475569" points="535.47,-666.05 545.99,-664.79 536.98,-659.22 535.47,-666.05"/>
<text xml:space="preserve" text-anchor="start" x="341.1" y="-644.58" font-family="Arial" font-size="24.00" fill="#475569">4. select</text>
</g>
<!-- 5&#45;&gt;17 -->
<g id="34" class="edge">
<title>5&#45;&gt;17</title>
<path fill="none" stroke="#475569" stroke-dasharray="5,2" d="M241.97,-629.53C303.79,-668.53 393.83,-724.08 474.6,-769.1 492.68,-779.18 512.09,-789.54 531.01,-799.39"/>
<polygon fill="#475569" stroke="#475569" points="529.31,-802.46 539.8,-803.96 532.54,-796.25 529.31,-802.46"/>
<text xml:space="preserve" text-anchor="start" x="335.47" y="-750.1" font-family="Arial" font-size="24.00" fill="#475569">5. reason</text>
</g>
<!-- 5&#45;&gt;4 -->
<g id="42" class="edge">
<title>5&#45;&gt;4</title>
<path fill="none" stroke="#475569" stroke-dasharray="5,2" d="M199.18,-532.59C229.3,-492.15 277.61,-436.43 333.6,-406.1 401.42,-369.36 488.81,-355.9 552.58,-351.16"/>
<polygon fill="#475569" stroke="#475569" points="552.55,-354.67 562.29,-350.5 552.07,-347.68 552.55,-354.67"/>
<text xml:space="preserve" text-anchor="start" x="333.6" y="-411.35" font-family="Arial" font-size="24.00" fill="#475569">7. answer</text>
</g>
<!-- 1 -->
<g id="1" class="node">
<title>1</title>
<polygon fill="#f8fafc" stroke="#475569" points="246.22,-176.2 84.37,-176.2 84.37,-80 246.22,-80 246.22,-176.2"/>
<text xml:space="preserve" text-anchor="start" x="113.17" y="-123.3" font-family="Arial" font-size="34.00" fill="#111827">Citizen</text>
<text xml:space="preserve" text-anchor="start" x="130.05" y="-103.55" font-family="Arial" font-size="19.00" fill="#111827">[Person]</text>
</g>
<!-- 1&#45;&gt;4 -->
<g id="25" class="edge">
<title>1&#45;&gt;4</title>
<path fill="none" stroke="#475569" stroke-dasharray="5,2" d="M246.46,-160.83C263.43,-167.99 281.16,-175.66 297.6,-183.1 385.98,-223.11 485.56,-272.12 554.11,-306.48"/>
<polygon fill="#475569" stroke="#475569" points="552.13,-309.4 562.64,-310.76 555.27,-303.15 552.13,-309.4"/>
<text xml:space="preserve" text-anchor="start" x="353.85" y="-250.35" font-family="Arial" font-size="24.00" fill="#475569">1. ask</text>
</g>
</g>
</svg>
