<?xml version="1.0" encoding="UTF-8" standalone="no"?>
<!DOCTYPE svg PUBLIC "-//W3C//DTD SVG 1.1//EN"
 "http://www.w3.org/Graphics/SVG/1.1/DTD/svg11.dtd">
<!-- Generated by graphviz version 14.1.5 (20260411.2331)
 -->
<!-- Pages: 1 -->
<svg width="1120pt" height="523pt"
 viewBox="0.00 0.00 1120.00 523.00" xmlns="http://www.w3.org/2000/svg" xmlns:xlink="http://www.w3.org/1999/xlink">
<g id="graph0" class="graph" transform="scale(1 1) rotate(0) translate(4 519.2)">
<polygon fill="white" stroke="none" points="-4,4 -4,-519.2 1115.8,-519.2 1115.8,4 -4,4"/>
<text xml:space="preserve" text-anchor="start" x="366.15" y="-30.7" font-family="Arial" font-size="34.00">Dynamic View: UMMAYA</text>
<text xml:space="preserve" text-anchor="start" x="440.4" y="-6.2" font-family="Arial" font-size="24.00">Docs publishing path.</text>
<g id="clust1" class="cluster">
<title>cluster_3</title>
<polygon fill="none" stroke="#444444" points="903.95,-172.1 903.95,-393.1 1103.8,-393.1 1103.8,-172.1 903.95,-172.1"/>
<text xml:space="preserve" text-anchor="start" x="952.88" y="-197.3" font-family="Arial" font-size="24.00" fill="#444444">UMMAYA</text>
<text xml:space="preserve" text-anchor="start" x="927" y="-178.05" font-family="Arial" font-size="19.00" fill="#444444">[Software System]</text>
</g>
<!-- 18 -->
<g id="18" class="node">
<title>18</title>
<polygon fill="#ecfdf5" stroke="#047857" points="1078.8,-368.2 928.95,-368.2 928.95,-272 1078.8,-272 1078.8,-368.2"/>
<text xml:space="preserve" text-anchor="start" x="964.88" y="-315.3" font-family="Arial" font-size="34.00" fill="#052e16">Docs</text>
<text xml:space="preserve" text-anchor="start" x="957.75" y="-295.55" font-family="Arial" font-size="19.00" fill="#052e16">[Container]</text>
</g>
<!-- 2 -->
<g id="2" class="node">
<title>2</title>
<polygon fill="#f8fafc" stroke="#475569" points="712.2,-515.2 511.35,-515.2 511.35,-419 712.2,-419 712.2,-515.2"/>
<text xml:space="preserve" text-anchor="start" x="540.15" y="-462.3" font-family="Arial" font-size="34.00" fill="#111827">Evaluator</text>
<text xml:space="preserve" text-anchor="start" x="576.52" y="-442.55" font-family="Arial" font-size="19.00" fill="#111827">[Person]</text>
</g>
<!-- 2&#45;&gt;18 -->
<g id="26" class="edge">
<title>2&#45;&gt;18</title>
<path fill="none" stroke="#475569" stroke-dasharray="5,2" d="M712.61,-438.22C766.68,-421.61 834.25,-399.27 892.95,-375.1 901.23,-371.69 909.74,-367.92 918.2,-364.01"/>
<polygon fill="#475569" stroke="#475569" points="919.54,-367.24 927.09,-359.81 916.55,-360.91 919.54,-367.24"/>
<text xml:space="preserve" text-anchor="start" x="811.95" y="-411.79" font-family="Arial" font-size="24.00" fill="#475569">1. read</text>
</g>
<!-- 22 -->
<g id="22" class="node">
<title>22</title>
<polygon fill="#e0f2fe" stroke="#0369a1" points="770.7,-176.2 452.85,-176.2 452.85,-80 770.7,-80 770.7,-176.2"/>
<text xml:space="preserve" text-anchor="start" x="481.65" y="-123.3" font-family="Arial" font-size="34.00" fill="#0f172a">Cloudflare Pages</text>
<text xml:space="preserve" text-anchor="start" x="534.9" y="-103.55" font-family="Arial" font-size="19.00" fill="#0f172a">[Software System]</text>
</g>
<!-- 22&#45;&gt;18 -->
<g id="55" class="edge">
<title>22&#45;&gt;18</title>
<path fill="none" stroke="#475569" stroke-dasharray="5,2" d="M757.95,-176.65C802.41,-193.73 850.71,-214.61 892.95,-238.1 906.98,-245.9 921.25,-255.29 934.65,-264.87"/>
<polygon fill="#475569" stroke="#475569" points="932.42,-267.57 942.56,-270.64 936.54,-261.92 932.42,-267.57"/>
<text xml:space="preserve" text-anchor="start" x="806.7" y="-243.35" font-family="Arial" font-size="24.00" fill="#475569">4. serve</text>
</g>
<!-- 23 -->
<g id="23" class="node">
<title>23</title>
<polygon fill="#e0f2fe" stroke="#0369a1" points="282.6,-272.2 0,-272.2 0,-176 282.6,-176 282.6,-272.2"/>
<text xml:space="preserve" text-anchor="start" x="28.8" y="-219.3" font-family="Arial" font-size="34.00" fill="#0f172a">GitHub Actions</text>
<text xml:space="preserve" text-anchor="start" x="64.42" y="-199.55" font-family="Arial" font-size="19.00" fill="#0f172a">[Software System]</text>
</g>
<!-- 23&#45;&gt;18 -->
<g id="52" class="edge">
<title>23&#45;&gt;18</title>
<path fill="none" stroke="#475569" stroke-dasharray="5,2" d="M282.96,-239.79C462.94,-259.87 769.1,-294.02 917.37,-310.56"/>
<polygon fill="#475569" stroke="#475569" points="916.8,-314.02 927.13,-311.65 917.58,-307.06 916.8,-314.02"/>
<text xml:space="preserve" text-anchor="start" x="572.77" y="-299.03" font-family="Arial" font-size="24.00" fill="#475569">2. build</text>
</g>
<!-- 23&#45;&gt;22 -->
<g id="54" class="edge">
<title>23&#45;&gt;22</title>
<path fill="none" stroke="#475569" stroke-dasharray="5,2" d="M282.86,-195.3C332.8,-185.06 389.55,-173.43 441.64,-162.76"/>
<polygon fill="#475569" stroke="#475569" points="442.1,-166.24 451.2,-160.8 440.7,-159.38 442.1,-166.24"/>
<text xml:space="preserve" text-anchor="start" x="318.6" y="-192.77" font-family="Arial" font-size="24.00" fill="#475569">3. deploy</text>
</g>
</g>
</svg>
