<?xml version="1.0" encoding="UTF-8" standalone="no"?>
<!DOCTYPE svg PUBLIC "-//W3C//DTD SVG 1.1//EN"
 "http://www.w3.org/Graphics/SVG/1.1/DTD/svg11.dtd">
<!-- Generated by graphviz version 14.1.5 (20260411.2331)
 -->
<!-- Pages: 1 -->
<svg width="1067pt" height="857pt"
 viewBox="0.00 0.00 1067.00 857.00" xmlns="http://www.w3.org/2000/svg" xmlns:xlink="http://www.w3.org/1999/xlink">
<g id="graph0" class="graph" transform="scale(1 1) rotate(0) translate(4 853.1)">
<polygon fill="white" stroke="none" points="-4,4 -4,-853.1 1063.3,-853.1 1063.3,4 -4,4"/>
<text xml:space="preserve" text-anchor="start" x="339.9" y="-30.7" font-family="Arial" font-size="34.00">Dynamic View: UMMAYA</text>
<text xml:space="preserve" text-anchor="start" x="427.65" y="-6.2" font-family="Arial" font-size="24.00">Public lookup path.</text>
<g id="clust1" class="cluster">
<title>cluster_3</title>
<polygon fill="none" stroke="#444444" points="8,-201.1 8,-841.1 711.7,-841.1 711.7,-201.1 8,-201.1"/>
<text xml:space="preserve" text-anchor="start" x="308.85" y="-226.3" font-family="Arial" font-size="24.00" fill="#444444">UMMAYA</text>
<text xml:space="preserve" text-anchor="start" x="282.97" y="-207.05" font-family="Arial" font-size="19.00" fill="#444444">[Software System]</text>
</g>
<!-- 14 -->
<g id="14" class="node">
<title>14</title>
<polygon fill="#ecfdf5" stroke="#047857" points="681.45,-816.2 498.6,-816.2 498.6,-720 681.45,-720 681.45,-816.2"/>
<text xml:space="preserve" text-anchor="start" x="527.4" y="-763.3" font-family="Arial" font-size="34.00" fill="#052e16">Registry</text>
<text xml:space="preserve" text-anchor="start" x="543.9" y="-743.55" font-family="Arial" font-size="19.00" fill="#052e16">[Container]</text>
</g>
<!-- 16 -->
<g id="16" class="node">
<title>16</title>
<polygon fill="#ecfdf5" stroke="#047857" points="686.7,-638.2 493.35,-638.2 493.35,-542 686.7,-542 686.7,-638.2"/>
<text xml:space="preserve" text-anchor="start" x="522.15" y="-585.3" font-family="Arial" font-size="34.00" fill="#052e16">Adapters</text>
<text xml:space="preserve" text-anchor="start" x="543.9" y="-565.55" font-family="Arial" font-size="19.00" fill="#052e16">[Container]</text>
</g>
<!-- 5 -->
<g id="5" class="node">
<title>5</title>
<polygon fill="#ecfdf5" stroke="#047857" points="297.6,-629.2 33,-629.2 33,-533 297.6,-533 297.6,-629.2"/>
<text xml:space="preserve" text-anchor="start" x="61.8" y="-576.3" font-family="Arial" font-size="34.00" fill="#052e16">Query Engine</text>
<text xml:space="preserve" text-anchor="start" x="119.17" y="-556.55" font-family="Arial" font-size="19.00" fill="#052e16">[Container]</text>
</g>
<!-- 16&#45;&gt;5 -->
<g id="41" class="edge">
<title>16&#45;&gt;5</title>
<path fill="none" stroke="#475569" stroke-dasharray="5,2" d="M492.98,-568.89C481.03,-566.92 468.95,-565.23 457.35,-564.1 409.2,-559.39 356.43,-560.57 309.2,-563.89"/>
<polygon fill="#475569" stroke="#475569" points="309.17,-560.39 299.46,-564.62 309.7,-567.37 309.17,-560.39"/>
<text xml:space="preserve" text-anchor="start" x="333.6" y="-569.35" font-family="Arial" font-size="24.00" fill="#475569">6. evidence</text>
</g>
<!-- 20 -->
<g id="20" class="node">
<title>20</title>
<polygon fill="#e0f2fe" stroke="#0369a1" points="1059.3,-638.2 829.95,-638.2 829.95,-542 1059.3,-542 1059.3,-638.2"/>
<text xml:space="preserve" text-anchor="start" x="858.75" y="-585.3" font-family="Arial" font-size="34.00" fill="#0f172a">Public APIs</text>
<text xml:space="preserve" text-anchor="start" x="867.75" y="-565.55" font-family="Arial" font-size="19.00" fill="#0f172a">[Software System]</text>
</g>
<!-- 16&#45;&gt;20 -->
<g id="39" class="edge">
<title>16&#45;&gt;20</title>
<path fill="none" stroke="#475569" stroke-dasharray="5,2" d="M686.91,-590.1C727.34,-590.1 774.96,-590.1 818.14,-590.1"/>
<polygon fill="#475569" stroke="#475569" points="818.08,-593.6 828.08,-590.1 818.08,-586.6 818.08,-593.6"/>
<text xml:space="preserve" text-anchor="start" x="722.7" y="-595.35" font-family="Arial" font-size="24.00" fill="#475569">5. Live</text>
</g>
<!-- 4 -->
<g id="4" class="node">
<title>4</title>
<polygon fill="#ecfdf5" stroke="#047857" points="664.95,-421.2 515.1,-421.2 515.1,-325 664.95,-325 664.95,-421.2"/>
<text xml:space="preserve" text-anchor="start" x="572.77" y="-368.3" font-family="Arial" font-size="34.00" fill="#052e16">UI</text>
<text xml:space="preserve" text-anchor="start" x="543.9" y="-348.55" font-family="Arial" font-size="19.00" fill="#052e16">[Container]</text>
</g>
<!-- 4&#45;&gt;5 -->
<g id="31" class="edge">
<title>4&#45;&gt;5</title>
<path fill="none" stroke="#475569" stroke-dasharray="5,2" d="M514.79,-409.63C448.36,-442.31 350.12,-490.65 274.87,-527.68"/>
<polygon fill="#475569" stroke="#475569" points="273.66,-524.37 266.23,-531.93 276.75,-530.65 273.66,-524.37"/>
<text xml:space="preserve" text-anchor="start" x="354.22" y="-500.98" font-family="Arial" font-size="24.00" fill="#475569">2. route</text>
</g>
<!-- 5&#45;&gt;14 -->
<g id="33" class="edge">
<title>5&#45;&gt;14</title>
<path fill="none" stroke="#475569" stroke-dasharray="5,2" d="M272.39,-629.61C292.68,-638.8 313.78,-648.29 333.6,-657.1 384.23,-679.6 440.71,-704.19 487.66,-724.5"/>
<polygon fill="#475569" stroke="#475569" points="486.18,-727.68 496.75,-728.43 488.96,-721.25 486.18,-727.68"/>
<text xml:space="preserve" text-anchor="start" x="350.47" y="-714.45" font-family="Arial" font-size="24.00" fill="#475569">3. select</text>
</g>
<!-- 5&#45;&gt;16 -->
<g id="38" class="edge">
<title>5&#45;&gt;16</title>
<path fill="none" stroke="#475569" stroke-dasharray="5,2" d="M298.01,-605.24C310.01,-606.8 322.01,-608.14 333.6,-609.1 388.41,-613.66 402.49,-613.04 457.35,-609.1 465.35,-608.53 473.6,-607.76 481.89,-606.86"/>
<polygon fill="#475569" stroke="#475569" points="482.15,-610.35 491.69,-605.73 481.35,-603.4 482.15,-610.35"/>
<text xml:space="preserve" text-anchor="start" x="362.47" y="-617.54" font-family="Arial" font-size="24.00" fill="#475569">4. find</text>
</g>
<!-- 5&#45;&gt;4 -->
<g id="42" class="edge">
<title>5&#45;&gt;4</title>
<path fill="none" stroke="#475569" stroke-dasharray="5,2" d="M194.62,-532.8C223.47,-488.57 272.56,-425.5 333.6,-395.1 385.83,-369.09 451.54,-363.95 503.23,-365.12"/>
<polygon fill="#475569" stroke="#475569" points="503.09,-368.62 513.2,-365.44 503.31,-361.62 503.09,-368.62"/>
<text xml:space="preserve" text-anchor="start" x="342.97" y="-400.35" font-family="Arial" font-size="24.00" fill="#475569">7. answer</text>
</g>
<!-- 1 -->
<g id="1" class="node">
<title>1</title>
<polygon fill="#f8fafc" stroke="#475569" points="246.22,-176.2 84.37,-176.2 84.37,-80 246.22,-80 246.22,-176.2"/>
<text xml:space="preserve" text-anchor="start" x="113.17" y="-123.3" font-family="Arial" font-size="34.00" fill="#111827">Citizen</text>
<text xml:space="preserve" text-anchor="start" x="130.05" y="-103.55" font-family="Arial" font-size="19.00" fill="#111827">[Person]</text>
</g>
<!-- 1&#45;&gt;4 -->
<g id="25" class="edge">
<title>1&#45;&gt;4</title>
<path fill="none" stroke="#475569" stroke-dasharray="5,2" d="M246.53,-158.99C263.65,-166.33 281.44,-174.54 297.6,-183.1 373.69,-223.41 455.41,-277.75 512.89,-317.99"/>
<polygon fill="#475569" stroke="#475569" points="510.83,-320.82 521.02,-323.7 514.85,-315.09 510.83,-320.82"/>
<text xml:space="preserve" text-anchor="start" x="363.22" y="-281.53" font-family="Arial" font-size="24.00" fill="#475569">1. ask</text>
</g>
</g>
</svg>
