<?xml version="1.0" encoding="UTF-8" standalone="no"?>
<!DOCTYPE svg PUBLIC "-//W3C//DTD SVG 1.1//EN"
 "http://www.w3.org/Graphics/SVG/1.1/DTD/svg11.dtd">
<!-- Generated by graphviz version 14.1.5 (20260411.2331)
 -->
<!-- Pages: 1 -->
<svg width="1461pt" height="777pt"
 viewBox="0.00 0.00 1461.00 777.00" xmlns="http://www.w3.org/2000/svg" xmlns:xlink="http://www.w3.org/1999/xlink">
<g id="graph0" class="graph" transform="scale(1 1) rotate(0) translate(4 773.1)">
<polygon fill="white" stroke="none" points="-4,4 -4,-773.1 1456.9,-773.1 1456.9,4 -4,4"/>
<text xml:space="preserve" text-anchor="start" x="536.7" y="-30.7" font-family="Arial" font-size="34.00">Dynamic View: UMMAYA</text>
<text xml:space="preserve" text-anchor="start" x="608.7" y="-6.2" font-family="Arial" font-size="24.00">Protected action path.</text>
<g id="clust1" class="cluster">
<title>cluster_3</title>
<polygon fill="none" stroke="#444444" points="8,-369.1 8,-761.1 1444.9,-761.1 1444.9,-369.1 8,-369.1"/>
<text xml:space="preserve" text-anchor="start" x="675.45" y="-394.3" font-family="Arial" font-size="24.00" fill="#444444">UMMAYA</text>
<text xml:space="preserve" text-anchor="start" x="649.57" y="-375.05" font-family="Arial" font-size="19.00" fill="#444444">[Software System]</text>
</g>
<!-- 15 -->
<g id="15" class="node">
<title>15</title>
<polygon fill="#ecfdf5" stroke="#047857" points="258.6,-696.2 33,-696.2 33,-600 258.6,-600 258.6,-696.2"/>
<text xml:space="preserve" text-anchor="start" x="61.8" y="-643.3" font-family="Arial" font-size="34.00" fill="#052e16">Permission</text>
<text xml:space="preserve" text-anchor="start" x="99.67" y="-623.55" font-family="Arial" font-size="19.00" fill="#052e16">[Container]</text>
</g>
<!-- 16 -->
<g id="16" class="node">
<title>16</title>
<polygon fill="#ecfdf5" stroke="#047857" points="605.7,-565.2 412.35,-565.2 412.35,-469 605.7,-469 605.7,-565.2"/>
<text xml:space="preserve" text-anchor="start" x="441.15" y="-512.3" font-family="Arial" font-size="34.00" fill="#052e16">Adapters</text>
<text xml:space="preserve" text-anchor="start" x="462.9" y="-492.55" font-family="Arial" font-size="19.00" fill="#052e16">[Container]</text>
</g>
<!-- 15&#45;&gt;16 -->
<g id="37" class="edge">
<title>15&#45;&gt;16</title>
<path fill="none" stroke="#475569" stroke-dasharray="5,2" d="M258.62,-607.55C304.08,-591.06 356.38,-572.09 401.31,-555.8"/>
<polygon fill="#475569" stroke="#475569" points="402.33,-559.15 410.54,-552.45 399.95,-552.57 402.33,-559.15"/>
<text xml:space="preserve" text-anchor="start" x="294.6" y="-599.58" font-family="Arial" font-size="24.00" fill="#475569">4. allow</text>
</g>
<!-- 5 -->
<g id="5" class="node">
<title>5</title>
<polygon fill="#ecfdf5" stroke="#047857" points="1090.8,-641.2 826.2,-641.2 826.2,-545 1090.8,-545 1090.8,-641.2"/>
<text xml:space="preserve" text-anchor="start" x="855" y="-588.3" font-family="Arial" font-size="34.00" fill="#052e16">Query Engine</text>
<text xml:space="preserve" text-anchor="start" x="912.37" y="-568.55" font-family="Arial" font-size="19.00" fill="#052e16">[Container]</text>
</g>
<!-- 16&#45;&gt;5 -->
<g id="41" class="edge">
<title>16&#45;&gt;5</title>
<path fill="none" stroke="#475569" stroke-dasharray="5,2" d="M606.02,-533.4C666.83,-543.73 746.59,-557.28 814.75,-568.85"/>
<polygon fill="#475569" stroke="#475569" points="814.08,-572.29 824.52,-570.52 815.25,-565.39 814.08,-572.29"/>
<text xml:space="preserve" text-anchor="start" x="641.7" y="-564.9" font-family="Arial" font-size="24.00" fill="#475569">6. evidence</text>
</g>
<!-- 21 -->
<g id="21" class="node">
<title>21</title>
<polygon fill="#e0f2fe" stroke="#0369a1" points="1115.55,-344.2 801.45,-344.2 801.45,-248 1115.55,-248 1115.55,-344.2"/>
<text xml:space="preserve" text-anchor="start" x="830.25" y="-291.3" font-family="Arial" font-size="34.00" fill="#0f172a">Official Channels</text>
<text xml:space="preserve" text-anchor="start" x="881.62" y="-271.55" font-family="Arial" font-size="19.00" fill="#0f172a">[Software System]</text>
</g>
<!-- 16&#45;&gt;21 -->
<g id="40" class="edge">
<title>16&#45;&gt;21</title>
<path fill="none" stroke="#475569" stroke-dasharray="5,2" d="M586.27,-468.65C643.94,-433.26 725.84,-385.62 801.45,-351.1 802.96,-350.41 804.48,-349.72 806.01,-349.04"/>
<polygon fill="#475569" stroke="#475569" points="807.1,-352.39 814.87,-345.18 804.31,-345.97 807.1,-352.39"/>
<text xml:space="preserve" text-anchor="start" x="648.07" y="-437.17" font-family="Arial" font-size="24.00" fill="#475569">5. Handoff</text>
</g>
<!-- 4 -->
<g id="4" class="node">
<title>4</title>
<polygon fill="#ecfdf5" stroke="#047857" points="1419.9,-589.2 1270.05,-589.2 1270.05,-493 1419.9,-493 1419.9,-589.2"/>
<text xml:space="preserve" text-anchor="start" x="1327.72" y="-536.3" font-family="Arial" font-size="34.00" fill="#052e16">UI</text>
<text xml:space="preserve" text-anchor="start" x="1298.85" y="-516.55" font-family="Arial" font-size="19.00" fill="#052e16">[Container]</text>
</g>
<!-- 4&#45;&gt;5 -->
<g id="31" class="edge">
<title>4&#45;&gt;5</title>
<path fill="none" stroke="#475569" stroke-dasharray="5,2" d="M1269.82,-561.73C1257.93,-564.53 1245.7,-567.12 1234.05,-569.1 1191.51,-576.33 1144.86,-581.44 1102.29,-585.04"/>
<polygon fill="#475569" stroke="#475569" points="1102.17,-581.53 1092.49,-585.84 1102.74,-588.51 1102.17,-581.53"/>
<text xml:space="preserve" text-anchor="start" x="1151.55" y="-584.72" font-family="Arial" font-size="24.00" fill="#475569">2. route</text>
</g>
<!-- 5&#45;&gt;15 -->
<g id="36" class="edge">
<title>5&#45;&gt;15</title>
<path fill="none" stroke="#475569" stroke-dasharray="5,2" d="M825.75,-605.03C708.03,-615.33 530.8,-629.96 376.35,-639.1 341.86,-641.14 304.43,-642.83 270,-644.17"/>
<polygon fill="#475569" stroke="#475569" points="270.3,-640.66 260.44,-644.54 270.57,-647.65 270.3,-640.66"/>
<text xml:space="preserve" text-anchor="start" x="464.02" y="-641.67" font-family="Arial" font-size="24.00" fill="#475569">3. check</text>
</g>
<!-- 5&#45;&gt;4 -->
<g id="42" class="edge">
<title>5&#45;&gt;4</title>
<path fill="none" stroke="#475569" stroke-dasharray="5,2" d="M1074.55,-544.54C1099.51,-536.06 1126.07,-528.54 1151.55,-524.1 1187.67,-517.81 1197.49,-521.29 1234.05,-524.1 1241.99,-524.71 1250.23,-525.57 1258.46,-526.57"/>
<polygon fill="#475569" stroke="#475569" points="1257.78,-530.01 1268.15,-527.83 1258.68,-523.07 1257.78,-530.01"/>
<text xml:space="preserve" text-anchor="start" x="1156.42" y="-529.35" font-family="Arial" font-size="24.00" fill="#475569">7. stop</text>
</g>
<!-- 1 -->
<g id="1" class="node">
<title>1</title>
<polygon fill="#f8fafc" stroke="#475569" points="1039.42,-176.2 877.57,-176.2 877.57,-80 1039.42,-80 1039.42,-176.2"/>
<text xml:space="preserve" text-anchor="start" x="906.37" y="-123.3" font-family="Arial" font-size="34.00" fill="#111827">Citizen</text>
<text xml:space="preserve" text-anchor="start" x="923.25" y="-103.55" font-family="Arial" font-size="19.00" fill="#111827">[Person]</text>
</g>
<!-- 1&#45;&gt;4 -->
<g id="25" class="edge">
<title>1&#45;&gt;4</title>
<path fill="none" stroke="#475569" stroke-dasharray="5,2" d="M1039.55,-162.06C1065.49,-175.35 1093.29,-192.22 1115.55,-212.1 1204.17,-291.22 1276.24,-411.27 1314.38,-482.38"/>
<polygon fill="#475569" stroke="#475569" points="1311.27,-483.98 1319.05,-491.16 1317.45,-480.69 1311.27,-483.98"/>
<text xml:space="preserve" text-anchor="start" x="1160.55" y="-349.49" font-family="Arial" font-size="24.00" fill="#475569">1. ask</text>
</g>
</g>
</svg>
